# xmcd CD Database Entry
#
# Track frame offsets:
# 150
# 17869
# 39006
# 59138
# 78489
# 97228
# 116463
# 137189
# 155117
# 172935
# 193375
# 213566
# 232486
# 254724
# 275156
# 292602
# 309981
# 334945
#
# Disc length: 4707 seconds
#
# Revision: 1
# Processed by: cddbd v1.4PL0 Copyright (c) Steve Scherf et al.
# Submitted via: tcd 2.0b
#
DISCID=1d126112
DTITLE=othiel cd # 1
DYEAR=1900
DGENRE=
TTITLE0=caramel
TTITLE1=geatest sex
TTITLE2=best of both worlds
TTITLE3=your everything
TTITLE4=you got it bad
TTITLE5=i'm a thug
TTITLE6=joy i feel
TTITLE7=worlds greatest
TTITLE8=lets get dirty
TTITLE9=storm is over
TTITLE10=i love you
TTITLE11=strip for you
TTITLE12=boy is mine
TTITLE13=lights camera action
TTITLE14=calling me
TTITLE15=somebodies girl
TTITLE16=all my life
TTITLE17=honey
EXTD=
EXTT0=
EXTT1=
EXTT2=
EXTT3=
EXTT4=
EXTT5=
EXTT6=
EXTT7=
EXTT8=
EXTT9=
EXTT10=
EXTT11=
EXTT12=
EXTT13=
EXTT14=
EXTT15=
EXTT16=
EXTT17=
PLAYORDER=
